<svg id="Capa_1" data-name="Capa 1" xmlns="http://www.w3.org/2000/svg" viewBox="0 0 604.53 307.16"><defs><style>.cls-1{fill:#1c1c1c;}.cls-2{fill:#f36715;}</style></defs><title>FABRICA DE IDEAS</title><polygon class="cls-1" points="0.9 7.99 22.68 7.99 22.68 11.8 6.12 11.8 6.12 23.5 21.43 23.5 21.43 27.26 6.12 27.26 6.12 43.18 0.9 43.18 0.9 7.99"/><path class="cls-1" d="M216.66,176.17l-4.19,11.07h-5.4l13.74-35.19h6.3l13.8,35.19h-5.58L231,176.17Zm13.27-3.55-4-10.13c-.9-2.29-1.5-4.38-2.1-6.42h-.12c-.6,2.09-1.26,4.23-2,6.37l-4,10.18Zm2.88-28.56-7.62,6.11h-4.32l5.58-6.11Z" transform="translate(-118.68 -144.06)"/><path class="cls-1" d="M312.84,152.52a57.91,57.91,0,0,1,9.55-.73c5.22,0,8.57.78,11.1,2.56a7.06,7.06,0,0,1,3.35,6.21c0,3.4-2.58,6.37-6.84,7.73v.1c3.84.84,8.34,3.61,8.34,8.83a9,9,0,0,1-3.42,7.05c-2.81,2.24-7.38,3.29-14,3.29a69.83,69.83,0,0,1-8.11-.42Zm5.23,14.41h4.74c5.52,0,8.76-2.51,8.76-5.9,0-4.12-3.6-5.74-8.88-5.74a25.42,25.42,0,0,0-4.62.31Zm0,16.87a33.08,33.08,0,0,0,4.38.21c5.39,0,10.38-1.73,10.38-6.84,0-4.81-4.74-6.79-10.44-6.79h-4.32Z" transform="translate(-118.68 -144.06)"/><path class="cls-1" d="M411.36,152.52a62.41,62.41,0,0,1,10-.73c5.57,0,9.18.88,11.7,2.87a8.26,8.26,0,0,1,3.18,6.68c0,4.65-3.36,7.73-7.62,9v.16c3.12.94,5,3.45,5.94,7.1,1.32,4.91,2.28,8.31,3.12,9.66h-5.4c-.66-1-1.56-4-2.7-8.4-1.2-4.86-3.36-6.69-8.11-6.84h-4.91v15.24h-5.23Zm5.23,16h5.34c5.58,0,9.12-2.66,9.12-6.68,0-4.55-3.78-6.53-9.3-6.58a25.3,25.3,0,0,0-5.16.41Z" transform="translate(-118.68 -144.06)"/><rect class="cls-1" x="390.96" y="7.99" width="5.22" height="35.19"/><path class="cls-1" d="M618.24,186.09a29.16,29.16,0,0,1-10.68,1.68c-11.39,0-20-6.27-20-17.81,0-11,8.58-18.48,21.12-18.48A24.56,24.56,0,0,1,618.3,153L617,156.75a21.32,21.32,0,0,0-8.16-1.46c-9.47,0-15.77,5.27-15.77,14.51,0,8.62,5.7,14.15,15.53,14.15a23.56,23.56,0,0,0,8.52-1.46Z" transform="translate(-118.68 -144.06)"/><path class="cls-1" d="M697.56,176.17l-4.19,11.07H688l13.75-35.19H708l13.8,35.19h-5.58l-4.32-11.07Zm13.26-3.55-4-10.13c-.91-2.29-1.5-4.38-2.11-6.42h-.12c-.6,2.09-1.26,4.23-2,6.37l-4,10.18Z" transform="translate(-118.68 -144.06)"/><path class="cls-1" d="M564.62,287.11h20.15L634,393.89H607.76l-9.66-21H551.78l-9.46,21h-26Zm10.08,35-14.19,31.47h28.68Z" transform="translate(-118.68 -144.06)"/><path class="cls-1" d="M720,296.78l-16.18,15.7q-12.78-6.66-18.38-6.67A10.61,10.61,0,0,0,678,308.7a9,9,0,0,0-3.13,6.87q0,7.89,16.18,13.66a118.9,118.9,0,0,1,17.93,8.1,30.62,30.62,0,0,1,10.16,10,25.38,25.38,0,0,1,4.09,13.91q0,13.74-12.55,23.91T681,395.35q-18.75,0-37-15.61l17.09-17.65q11.51,10.5,21.52,10.49a13.73,13.73,0,0,0,9-3.69q4.32-3.69,4.33-7.74,0-8.36-19.95-14.73-11.4-3.69-16.18-6.9a25.22,25.22,0,0,1-8-9.35,26.52,26.52,0,0,1-3.26-12.56q0-14.24,10.48-23.1t27.4-8.87Q706.39,285.64,720,296.78Z" transform="translate(-118.68 -144.06)"/><path class="cls-1" d="M142.32,299.36a11.82,11.82,0,1,1-11.82-11.82A11.82,11.82,0,0,1,142.32,299.36Z" transform="translate(-118.68 -144.06)"/><path class="cls-2" d="M352.65,236.75c-39.86-17.16-78.55-11.86-113,14.67C222.28,264.83,204,284,182.06,283.74c-6.93-.08-13.47-.06-20.49-.06V394.39c5.68,0,10.78-.05,15.77-.05,24.46,0,44.56,18,64.07,32.78,37.64,28.6,79.3,31.89,120.65,9.1s61.1-59.6,57.38-106.73c-3.43-43.67-26.7-75.48-66.79-92.74m35.14,108.9c-2.1,35.33-31.15,66.4-67,71.66-21.68,3.18-42-.92-59-14.68-21.12-17.13-44-40-72.08-40.25v-46c7.27-.92,14.24-1.43,21.05-2.75,17.6-3.41,32.78-24.48,46.71-35.67,21.47-17.25,45.81-22.52,72.5-15.45,36.55,9.68,60.15,43.79,57.81,83.14" transform="translate(-118.68 -144.06)"/><path class="cls-1" d="M142.23,334.26a11.82,11.82,0,0,0-11.73-10.38H118.69v11.55c0,.09,0,.17,0,.27s0,.18,0,.27v57.85h23.54V337.13a11.49,11.49,0,0,0,0-2.87Z" transform="translate(-118.68 -144.06)"/><path class="cls-1" d="M481.58,308.25h19.07v-9.32a11.82,11.82,0,0,0-11.82-11.82H432.71V393.89h67.94V372.75H458.73V350.62h41.92V329.8H458.73V308.25Z" transform="translate(-118.68 -144.06)"/></svg>